<mxfile host="app.diagrams.net" modified="2024-06-05T11:42:59.873Z" agent="Mozilla/5.0 (Windows NT 10.0; Win64; x64) AppleWebKit/537.36 (KHTML, like Gecko) Chrome/125.0.0.0 Safari/537.36" version="24.4.14" etag="16Y7tlKn758nk9tktrG9" type="github">
  <diagram name="PÃ¡gina-1" id="sKqHBNgS_MoGLnc-6nHJ">
    <mxGraphModel>
      <root>
        <mxCell id="0" />
        <mxCell id="1" parent="0" />
      </root>
    </mxGraphModel>
  </diagram>
</mxfile>
